<svg width="1200" height="900" viewBox="0 0 1200 900" fill="none" xmlns="http://www.w3.org/2000/svg">
  <rect width="1200" height="900" rx="48" fill="#F3F5FB"/>
  <rect x="66" y="66" width="1068" height="768" rx="36" fill="#FFFFFF"/>
  <rect x="122" y="134" width="264" height="632" rx="28" fill="#0F172A"/>
  <rect x="430" y="134" width="648" height="154" rx="28" fill="#E9EEF8"/>
  <rect x="430" y="324" width="308" height="210" rx="28" fill="#EFF6FF"/>
  <rect x="770" y="324" width="308" height="210" rx="28" fill="#F8FAFC"/>
  <rect x="430" y="570" width="648" height="196" rx="28" fill="#F8FAFC"/>
  <path d="M222 230C222 195.758 249.758 168 284 168C318.242 168 346 195.758 346 230C346 264.242 318.242 292 284 292C249.758 292 222 264.242 222 230Z" fill="#1D4ED8"/>
  <path d="M284 197V263" stroke="#FFFFFF" stroke-width="18" stroke-linecap="round"/>
  <path d="M251 230H317" stroke="#FFFFFF" stroke-width="18" stroke-linecap="round"/>
  <rect x="180" y="346" width="208" height="18" rx="9" fill="#94A3B8"/>
  <rect x="180" y="392" width="164" height="18" rx="9" fill="#475569"/>
  <rect x="180" y="500" width="136" height="18" rx="9" fill="#94A3B8"/>
  <rect x="180" y="546" width="184" height="18" rx="9" fill="#475569"/>
  <path d="M500 212H833" stroke="#2563EB" stroke-width="14" stroke-linecap="round"/>
  <path d="M500 248H1004" stroke="#94A3B8" stroke-width="14" stroke-linecap="round"/>
  <circle cx="566" cy="429" r="74" fill="#DBEAFE"/>
  <path d="M566 384L580 413L612 418L589 441L594 473L566 458L538 473L543 441L520 418L552 413L566 384Z" fill="#2563EB"/>
  <rect x="798" y="370" width="94" height="94" rx="20" fill="#E2E8F0"/>
  <rect x="916" y="370" width="94" height="94" rx="20" fill="#BFDBFE"/>
  <rect x="798" y="488" width="94" height="18" rx="9" fill="#94A3B8"/>
  <rect x="916" y="488" width="94" height="18" rx="9" fill="#94A3B8"/>
  <path d="M498 636H998" stroke="#0F172A" stroke-width="18" stroke-linecap="round"/>
  <path d="M498 684H914" stroke="#94A3B8" stroke-width="14" stroke-linecap="round"/>
  <path d="M498 726H838" stroke="#CBD5E1" stroke-width="14" stroke-linecap="round"/>
</svg>
